<svg width="266" height="151" viewBox="0 0 266 151" xmlns="http://www.w3.org/2000/svg" xmlns:xlink="http://www.w3.org/1999/xlink">
    <defs>
        <linearGradient x1="8.576%" y1="84.74%" x2="67.539%" y2="50%" id="yd9m8rt8zc">
            <stop stop-color="#121E6C" offset="0%"/>
            <stop stop-color="#EE424E" offset="100%"/>
        </linearGradient>
        <path id="qicbs4y31a" d="M0 0h266v151H0z"/>
    </defs>
    <g fill="none" fill-rule="evenodd">
        <mask id="6wrv21lzyb" fill="#fff">
            <use xlink:href="#qicbs4y31a"/>
        </mask>
        <g mask="url(#6wrv21lzyb)">
            <path d="M179.762 94.72s-.373.594-7.037 6.202c-1.733-4.086-7.652-9.34-18.925-6.825-13.56 3.023-26.635 3.4-31.76 2.918-4.386-.414-17.966-2.52-24.17-3.498 2.478-.454 5.321-.576 8.568-.247 17.168 1.748 33.355.3 39.604-1.047 7.013-1.513 32.414-2.43 33.72 2.496" fill="#EE424E"/>
            <path d="M33.043 33.128s-.066-1.434-.707-2.257c-1.987-2.553-3.934-4.753-4.558-6.122-.624-1.37.341-2.066.341-2.066s-.272-.526-.543-2.212c-.204-1.265.869-1.656.869-1.656-.29-1.335-.19-2.367.834-2.694.525-.169.888.265.951.549-.042-.526.088-1.354.922-1.488.816-.13 1.52 1.398 2.03 3.918.343 1.7 2.228 4.153 2.589 3.863.58-.467-2.078-2.782-1.48-3.856.395-.707 1.623-.364 3.051 1.714 1.959 2.849 1.663 5.76 1.663 5.76.337 2.119.624 2.955 1.223 4.156.6 1.202-7.039 4.323-7.185 2.39" fill="#FCD9DC"/>
            <path d="M30.204 16.588s-.044 3.803 1.656 6.046c1.063 1.402 1.815 2.255 1.815 2.255M28.437 18.857s.293 3.09 1.957 5.36c.5.683 1.525 1.777 1.525 1.777M28.12 22.683c.282.733.743 1.657 1.26 2.34.55.728 1.274 1.561 1.274 1.561" stroke="#F8B3B8" stroke-width=".5" stroke-linecap="round"/>
            <path d="M84.33 111.662c3.64-2.73 7.52-13.79-4.521-24.563-12.041-10.772-21.241-22.883-24.245-28.055-3.373-5.807-14.673-28.535-14.673-28.535s-3.943-.957-8.192 1.245c0 0-1.666 32.635 6.339 46.884 18.738 33.356 33.634 41.769 45.291 33.024" fill="#EE424E"/>
            <path d="M160.563 122.837s-15.852 23.012-32.236 47.976c-14.358 21.878-26.758 48.683-29.605 54.978a1.33 1.33 0 0 0 .843 1.825c4.287 1.249 17.236 4.325 28.016-.296a1.33 1.33 0 0 0 .586-.493c2.34-3.55 22.787-34.535 29.621-43.237 7.253-9.236 20.463-24.897 20.463-24.897s15.006 14.939 11.763 24.09c-2.895 8.166-14.984 39.512-17.556 46.173a1.127 1.127 0 0 0 .849 1.513c12.196 2.274 21.683.288 23.614-.174.233-.055.441-.184.596-.367 3.151-3.717 36.703-43.937 30-63.368-7.033-20.383-33.008-43.723-33.008-43.723h-33.946z" fill="#505792"/>
            <path d="M102.805 122.837s15.852 23.012 32.236 47.976c14.358 21.878 26.758 48.683 29.605 54.978a1.33 1.33 0 0 1-.843 1.825c-4.287 1.249-17.236 4.325-28.016-.296a1.33 1.33 0 0 1-.586-.493c-2.34-3.55-22.788-34.535-29.622-43.237-7.252-9.236-20.805-26.201-20.805-26.201s-14.664 16.243-11.42 25.394c2.895 8.166 12.435 39.512 15.007 46.173a1.127 1.127 0 0 1-.849 1.513c-12.196 2.274-19.134.288-21.065-.174a1.122 1.122 0 0 1-.596-.367c-3.151-3.717-36.703-43.937-30-63.368 7.033-20.383 33.008-43.723 33.008-43.723h33.946z" fill="#121E6C"/>
            <path d="M226.854 28.048c-.35 1.715-1.48 5.148-2.82 7.591-.858 1.568-1.104 4.753-1.104 4.753.033 1.032-4.228.448-5.987-.385-.396-.19-.645.098-.504-.771.216-1.313.373-2.28.32-2.483-.854-3.3-1.427-5.001-.68-7.69.144-.525.334-.963.54-1.31.383.716.91 1.63 1.484 2.415.036.183.108.35.232.49.053.058.112.075.184.049.32-.111.815-1.069 1.352-2.284.456-1.022.94-2.23 1.376-3.27.544-1.297.662-1.907 1.232-1.999.776-.127.677.68.451 1.64.394-1.049.531-2.404 1.304-2.417.773-.01.744.62.272 2.64.078-.298.439-1.52 1.107-1.422.465.069.586.712.485 1.268-.38 2.087-.718 3.106-.918 3.577.112-.245.272-.647.479-1.278.282-.872.573-1.444 1.117-1.333.678.141.196 1.657.078 2.219" fill="#FCD9DC"/>
            <path d="M223.077 24.42c-.736 2.31-1.228 3.83-2.156 5.544M224.595 24.724s-.786 2.793-2.052 5.753M225.658 26.928c-.42 1.367-.838 2.377-1.314 3.73" stroke="#F8B3B8" stroke-width=".5" stroke-linecap="round"/>
            <path d="m212.056 28.711-1.939 1.225-1.871 1.181a1.65 1.65 0 0 1-1.309.2c-1.091-.294-2.2-1.12-2.976-2.343-.772-1.217-1.045-2.572-.848-3.683a1.64 1.64 0 0 1 .741-1.098l1.869-1.18 1.94-1.224c-.124 1.146.281 2.663 1.191 4.096.91 1.433 2.11 2.447 3.202 2.826" fill="#CED2ED"/>
            <path d="m204.568 20.346-2.53.005a56.834 56.834 0 0 0-4.571.173 31.091 31.091 0 0 0-4.173.616 26.34 26.34 0 0 0-1.942.514c-.015 0-2.89 1.056-2.89 1.087a32.28 32.28 0 0 0-2.614 1.323l-1.34.849c-1.094-.38-2.294-1.394-3.204-2.827-.91-1.434-1.316-2.949-1.192-4.096l1.343-.849c4.633-3.76 7.367-6.87 10.29-13.006l1.086-2.277 5.202 8.193 1.333 2.102 5.202 8.193z" fill="url(#yd9m8rt8zc)" transform="translate(27.55 3.799)"/>
            <path d="M220.382 5.657s-.43 2.595 1.99 7.473c.471.95 1.05 1.986 1.761 3.107a40.9 40.9 0 0 0 2.08 2.988c3 3.905 5.364 5.26 5.905 4.92 1.93-1.22.867-6.346-2.373-11.451-3.241-5.105-7.433-8.256-9.363-7.037" fill="#CED2ED"/>
            <path d="M225.391 12.028c.323-.203 1.277.723 2.131 2.068.855 1.347 1.286 2.603.964 2.806h-.001c-.012.01-1.14.872-2.272 2.323a40.867 40.867 0 0 1-2.08-2.988 33.84 33.84 0 0 1-1.76-3.107c1.81-.382 3.018-1.102 3.018-1.102" fill="#FEFDFE"/>
            <path d="M228.486 16.902c.322-.203-.11-1.46-.964-2.806-.854-1.345-1.808-2.272-2.13-2.068-.323.204.108 1.46.963 2.806.854 1.346 1.808 2.272 2.13 2.068" fill="#EE424E"/>
            <path d="M172.701 92.742a8.89 8.89 0 0 1-.767.301c.134-.118.267-.241.4-.367.018.007.147.034.367.066" fill="#121E6C"/>
            <path d="M178.98 108.038c-3.127-2.345-6.46-11.844 3.882-21.096 10.342-9.253 18.243-19.654 20.823-24.096 2.897-4.988 12.602-24.507 12.602-24.507s3.386-.823 7.036 1.07c0 0 1.43 28.027-5.444 40.265-16.094 28.649-28.888 35.874-38.9 28.364M173.274 103.19c.265 10.4-8.925 16.433-30.894 16.108-4.422-.065-9.36-.39-14.844-.986-13.983-1.525-36.033-18.96-36.033-18.96.265-1.87.969-3.368 1.652-4.431.797-1.242 1.562-1.903 1.562-1.903s1.217.195 3.153.5c6.204.977 19.784 3.083 24.17 3.496 5.125.483 18.2.106 31.76-2.917 11.273-2.515 17.192 2.74 18.925 6.825.354.828.533 1.61.55 2.268" fill="#CED2ED"/>
            <path d="M218.103 30.168c-.574-.784-1.1-1.699-1.484-2.414.56-.945 1.258-1.232 1.615-.912.632.565-.357 2.244-.131 3.326" fill="#FCD9DC"/>
            <path d="M220.536 30.968c-.006.01-.01.02-.016.026-.34.582-1.143.62-1.615.144a5.535 5.535 0 0 1-.386-.431 7.709 7.709 0 0 1-.416-.54c-.226-1.08.763-2.76.13-3.325-.356-.32-1.054-.033-1.614.912-.337-.634-.56-1.114-.606-1.212.963-.432 1.916-.791 2.889-1.088a20.569 20.569 0 0 0 .498 1.692 34.595 34.595 0 0 0 1.166 2.917 1 1 0 0 1-.03.905M200.078 122.21s-5.118 7.46-25.447 11.488c-19.66 3.896-24.696-1.23-24.696-1.23 3.803-5.946 2.7-14.281.897-18.864-2.217-5.635-3.28-14.8 4.047-18.022 14.415-6.34 16.735.729 26.484-7.2 2.155-1.753 10.58 16.525 10.907 21.206.664 9.51 7.808 12.623 7.808 12.623" fill="#CED2ED"/>
            <path d="M57.995 133.755s10.75 4.033 26.78 5.35c20.935 1.72 28.434-1.062 28.434-1.062-4.447-14.594-2.401-20.357-1.623-24.439 1.134-5.947 3.28-14.8-4.047-18.022-14.416-6.34-16.735.729-26.484-7.2-2.155-1.753-15.52 20.953-16.862 25.45-3.532 11.844-6.198 19.923-6.198 19.923" fill="#EE424E"/>
            <path d="M171.385 92.323c-.15 4.929-6.675 5.023-8.719 3.831-2.092-1.221-1.912-2.704-1.912-2.704s.553-.31 1.044-.856c.223.042.45.068.679.075.071.006.144.006.219.006.18 0 .357-.013.537-.032 1.621-.18 3.017-1.13 4.006-2.558 1.146-1.046 2.05-2.558 2.512-4.342-.078 1.337.06 2.76.43 4.041a.04.04 0 0 1 .002.02c.272.954.672 1.823 1.202 2.519" fill="#FCD9DC"/>
            <path d="M170 84.463c-.056.438-.14.866-.249 1.28-.927 3.567-3.616 6.064-6.489 5.884a4.917 4.917 0 0 1-.809-.12c-3.049-.736-5.03-4.46-4.49-8.609.023-.173.05-.343.082-.512 0-.007 0-.017.003-.023.75-4.097 3.78-7.018 6.97-6.6 3.321.432 5.555 4.326 4.982 8.7" fill="#FCD9DC"/>
            <path d="M167.239 90.085c-.99 1.427-2.385 2.378-4.006 2.557-.18.02-.357.033-.537.033-.076 0-.147 0-.22-.006a4.27 4.27 0 0 1-.677-.075c.271-.291.524-.66.651-1.088h.004a5 5 0 0 0 .809.12c1.437.092 2.83-.492 3.976-1.541" fill="#F8B3B8"/>
            <path d="M170 84.463c.573-4.374-1.66-8.268-4.982-8.7-3.19-.418-6.22 2.503-6.97 6.6l-.023-.007.02.03c-.033.17-.059.339-.082.512-.54 4.149 1.441 7.87 4.487 8.608-.127.428-.38.797-.651 1.088-.492.545-1.045.856-1.045.856-1.648.535-2.398-.406-2.398-.406s-.16.624.753 1.02c0 0-2.849.78-3.681-2.529-.829-3.305 1.972-3.087 1.366-6.713-.603-3.626.393-5.935 1.615-7.67 4.254-6.037 11.676-2.982 11.807-1.535.957.65 3.919 2.258 3.065 7.25-.321 1.881.586 3.867 2.587 4.278 2 .41 3.031 3.756.795 5.447 0 0 .588-1.479-.118-2.007 0 0-.944 4.398-5.228 2.434-3.823-1.754-1.566-7.275-1.566-7.275.108-.415.193-.843.249-1.281z" fill="#121E6C"/>
            <path d="M170.815 84.975c-.063.498-.16.985-.283 1.457l-.44-2.505c-2.533.157-3.751-4.198-3.751-4.198-3.886 4.139-8.721 2.961-9.12 2.857.853-4.66 4.299-7.98 7.928-7.505 3.777.49 6.318 4.92 5.666 9.894" fill="#121E6C"/>
            <path d="M169.097 85.505c.96 1.074 3.232-2.072 2.426-3.078-.678-.846-1.434-.084-1.67.204-.323.39-.488.911-.488.911l-.268 1.963z" fill="#FCD9DC"/>
            <path d="M171.081 83.389s.02-1.7-1.62 1.042" stroke="#F8B3B8" stroke-width=".5" stroke-linecap="round"/>
            <path d="M110.808 117.686s3.58-20.899 13.194-20.547l1.145-1.588-22.073-1.648 7.734 23.783z" fill="#EE424E"/>
            <path d="M87.447 92.01c1.58.197 2.87-.485 3.294-1.154 1.884-2.972 1.649-6.635 1.643-8.775.102.515.237 1.013.403 1.493.669 4.504 3.624 7.927 7.262 8.037h.028c.043.003.085.003.127.003.864 1.225 1.402 1.522 1.402 1.522s.446 1.414-1.448 2c-6.757 2.096-13.19-3.186-12.711-3.126" fill="#FCD9DC"/>
            <path d="M92.384 82.31c.027.136.062.266.093.399a6.482 6.482 0 0 1-.093-.398" fill="#FCD9DC"/>
            <path d="M100.204 91.614c-.042 0-.084 0-.127-.003h-.028c-3.638-.11-6.593-3.533-7.262-8.037 1.171 3.41 3.84 5.856 6.766 5.655l.022.006c-.082 1 .208 1.783.63 2.38" fill="#F8B3B8"/>
            <path d="M99.278 89.917c-.186.013-.372.02-.56.016l-.025-.003c-3.235-.095-5.855-3.178-6.398-7.202a5.953 5.953 0 0 1-.056-.451 11.33 11.33 0 0 1 .231-3.673c.858-3.788 3.565-6.533 6.7-6.452 3.736.094 6.656 4.151 6.533 9.062-.119 4.66-2.944 8.417-6.425 8.703" fill="#FCD9DC"/>
            <path d="M93.617 73.245s-1.157-2.776 1.71-3.047c6.898-.65 10.023-.593 11.106 1.659 1.18 2.454-1.02 6.464-1.02 6.464-.16-.606-.286-1.002-.286-1.002-6.996 1.939-10.115-3.316-10.14-.87-.01 1.133-.306 2.074-.897 2.863-.306.409-.672.686-1.163.57-.35-.083-.507-.95-.507-.95l-.181 3.345c.121 1.149.362 1.94.362 1.94-.121 1.19-.444 2.757-.444 2.757-.075-.268-.138-2.722-.57-4.893-.43-2.17-.36-4.118-.36-4.118s.077-2.843 2.39-4.718" fill="#121E6C"/>
            <path d="M92.392 81.711a.559.559 0 0 1-.86.45c-1.02-.66-1.769-3.33-.847-3.997.658-.476 1.22-.006 1.518.352.147.176.233.393.25.62l.022.278a.515.515 0 0 1 .001.064l-.084 2.233z" fill="#FCD9DC"/>
            <path d="M90.872 79.328s.484-1.832 1.431 1.597" stroke="#F8B3B8" stroke-width=".5" stroke-linecap="round"/>
            <path stroke="#6C78C9" stroke-width=".522" stroke-linecap="round" d="m230.382 9.416 2.699-5.617M234.098 11.907l10.052-7.631M234.506 16.078l6.151 1.152"/>
        </g>
    </g>
</svg>
