<svg width="21" height="13" viewBox="0 0 21 13" xmlns="http://www.w3.org/2000/svg" xmlns:xlink="http://www.w3.org/1999/xlink">
    <defs>
        <path id="9mgb5a7apa" d="M0 0h4.227v1.093H0z"/>
        <path id="g93abzofgc" d="M0 0h14.616v1.093H0z"/>
        <path id="olye86ai7e" d="M0 0h4.227v1.093H0z"/>
        <path id="tj4kegtcug" d="M0 0h5.02v4.789H0z"/>
    </defs>
    <g fill="none" fill-rule="evenodd">
        <path d="M3.654 6.5a.56.56 0 0 1-.573.547H0V5.954h3.081a.56.56 0 0 1 .573.547" fill="#6C759F"/>
        <path d="M15.409 1.093c-.753 0-1.365.584-1.365 1.301 0 .718.612 1.302 1.365 1.302.752 0 1.364-.584 1.364-1.302 0-.717-.612-1.301-1.364-1.301m0 3.696c-1.384 0-2.51-1.074-2.51-2.395 0-1.32 1.126-2.394 2.51-2.394s2.51 1.074 2.51 2.394-1.126 2.395-2.51 2.395" fill="#111E6C"/>
        <g transform="translate(16.773 1.848)">
            <mask id="6a8otxvo4b" fill="#fff">
                <use xlink:href="#9mgb5a7apa"/>
            </mask>
            <path d="M3.654 1.093H.573A.56.56 0 0 1 0 .546.56.56 0 0 1 .573 0h3.081a.56.56 0 0 1 .573.546.56.56 0 0 1-.573.547" fill="#111E6C" mask="url(#6a8otxvo4b)"/>
        </g>
        <path d="M14.044 2.393a.56.56 0 0 1-.573.547H0V1.847h13.471a.56.56 0 0 1 .573.546" fill="#111E6C"/>
        <g transform="translate(6.384 5.954)">
            <mask id="v6c3nhsv2d" fill="#fff">
                <use xlink:href="#g93abzofgc"/>
            </mask>
            <path d="M14.044 1.093H.573A.56.56 0 0 1 0 .546.56.56 0 0 1 .573 0h13.47a.56.56 0 0 1 .573.546.56.56 0 0 1-.572.547" fill="#111E6C" mask="url(#v6c3nhsv2d)"/>
        </g>
        <path d="M14.044 10.606a.56.56 0 0 1-.573.547H0V10.06h13.471a.56.56 0 0 1 .573.546" fill="#111E6C"/>
        <g transform="translate(16.773 10.06)">
            <mask id="ijuolv00yf" fill="#fff">
                <use xlink:href="#olye86ai7e"/>
            </mask>
            <path d="M3.654 1.093H.573A.56.56 0 0 1 0 .546.56.56 0 0 1 .573 0h3.081a.56.56 0 0 1 .573.546.56.56 0 0 1-.573.547" fill="#EE424E" mask="url(#ijuolv00yf)"/>
        </g>
        <g transform="translate(12.899 8.211)">
            <mask id="fqhhhvs8ah" fill="#fff">
                <use xlink:href="#tj4kegtcug"/>
            </mask>
            <path d="M2.51 1.093c-.752 0-1.364.584-1.364 1.301 0 .718.612 1.302 1.364 1.302.752 0 1.364-.584 1.364-1.302 0-.717-.612-1.301-1.364-1.301m0 3.696C1.126 4.789 0 3.715 0 2.394 0 1.074 1.126 0 2.51 0s2.51 1.074 2.51 2.394S3.894 4.79 2.51 4.79" fill="#EE424E" mask="url(#fqhhhvs8ah)"/>
        </g>
        <path d="M5.02 5.198c-.753 0-1.365.584-1.365 1.302 0 .718.612 1.302 1.364 1.302.753 0 1.365-.584 1.365-1.302 0-.718-.612-1.302-1.365-1.302m0 3.696c-1.384 0-2.51-1.074-2.51-2.394s1.126-2.394 2.51-2.394S7.53 5.18 7.53 6.5 6.403 8.894 5.02 8.894" fill="#6C759F"/>
    </g>
</svg>
