<svg width="17" height="17" viewBox="0 0 17 17" xmlns="http://www.w3.org/2000/svg" xmlns:xlink="http://www.w3.org/1999/xlink">
    <defs>
        <path id="8exjys2bha" d="M0 0h13.46v13.882H0z"/>
        <path id="4nbinbu9mc" d="M0 0h13.367v13.776H0z"/>
    </defs>
    <g fill="none" fill-rule="evenodd">
        <path d="M2.38 13.192a.598.598 0 0 1-.389-1.055c.068-.058.149-.131.244-.217.916-.832 3.063-2.78 6.265-2.78a.6.6 0 0 1 0 1.199c-2.74 0-4.577 1.667-5.46 2.469-.105.095-.195.176-.27.24a.597.597 0 0 1-.39.144" fill="#111E6C"/>
        <path d="M14.716 13.6a.599.599 0 0 1-.51-.285c-1.12-1.816-3.458-3.04-5.688-2.973a.6.6 0 0 1-.035-1.198c2.679-.079 5.389 1.345 6.743 3.542a.6.6 0 0 1-.51.914" fill="#EE424E"/>
        <path d="M8.36 4.775a2.185 2.185 0 0 0-2.182 2.183c0 1.203.979 2.182 2.182 2.182 1.204 0 2.183-.979 2.183-2.182A2.185 2.185 0 0 0 8.36 4.775m0 5.564a3.385 3.385 0 0 1-3.38-3.381 3.385 3.385 0 0 1 3.38-3.381 3.385 3.385 0 0 1 3.381 3.38 3.385 3.385 0 0 1-3.38 3.382" fill="#111E6C"/>
        <g>
            <mask id="95f1ph7ydb" fill="#fff">
                <use xlink:href="#8exjys2bha"/>
            </mask>
            <path d="M13.359 2.241a.599.599 0 0 1-.83.17 7.268 7.268 0 0 0-4.028-1.213c-4.027 0-7.303 3.276-7.303 7.303a7.24 7.24 0 0 0 1.582 4.538l.012.016-.873.827A8.438 8.438 0 0 1 0 8.501C0 3.813 3.813 0 8.501 0c1.676 0 3.298.487 4.69 1.41a.6.6 0 0 1 .168.831" fill="#111E6C" mask="url(#95f1ph7ydb)"/>
        </g>
        <g transform="translate(3.633 3.224)">
            <mask id="dl4udrexpd" fill="#fff">
                <use xlink:href="#4nbinbu9mc"/>
            </mask>
            <path d="M13.367 5.277c0 4.686-3.813 8.5-8.499 8.5A8.476 8.476 0 0 1 .274 12.43a.602.602 0 0 1-.18-.829.602.602 0 0 1 .83-.18 7.264 7.264 0 0 0 3.944 1.157 7.284 7.284 0 0 0 5.61-2.635 7.283 7.283 0 0 0 1.691-4.666 7.24 7.24 0 0 0-1.49-4.424L11.532 0a8.415 8.415 0 0 1 1.835 5.277" fill="#6C759F" mask="url(#dl4udrexpd)"/>
        </g>
    </g>
</svg>
