<svg width="40" height="41" viewBox="0 0 40 41" xmlns="http://www.w3.org/2000/svg">
    <defs>
        <linearGradient x1="10.798%" y1="50%" x2="89.928%" y2="50%" id="07jgihbvda">
            <stop stop-color="#121E6C" offset="0%"/>
            <stop stop-color="#EE424E" offset="100%"/>
        </linearGradient>
        <linearGradient x1="-.017%" y1="50.097%" x2="100.004%" y2="50.097%" id="t4dsrrfv2b">
            <stop stop-color="#121E6C" offset="10%"/>
            <stop stop-color="#EE424E" offset="87%"/>
        </linearGradient>
    </defs>
    <g fill="none" fill-rule="evenodd">
        <path d="M31.059 15.584c-.665-2.08.165-4.684-1.16-7.775C28.484 4.53 25.324.034 19.995.034c-4.555 0-7.649 3.115-9.743 7.775-1.414 3.176-.976 5.686-1.471 7.775-.65 2.778 2.41 7.162 6.602 7.494a4.206 4.206 0 0 1-1-1.92s1.453 2.417 3.523 2.173h4.376c1.811 0 3.528-2.173 3.528-2.173a4.266 4.266 0 0 1-1 1.92c3.716-.084 6.975-4.726 6.244-7.494" fill="#121E6C" fill-rule="nonzero"/>
        <path d="M26.244 28.137c-.104.904-2.787 1.625-6.084 1.625-3.296 0-5.98-.688-6.097-1.625.976-.347 1.702-.703 1.787-1.026.58-.834.84-3.54.943-5.152.802 1.17 2.358 2.974 4.098 2.567a3.29 3.29 0 0 0 2.358-2.342c.08 1.63.307 4.313.981 4.838.137.305.967.717 2.014 1.115z" fill="#DEDFEA" fill-rule="nonzero"/>
        <path d="M23.245 22.165a3.29 3.29 0 0 1-2.358 2.342c-1.745.407-3.302-1.405-4.099-2.567v-.145l.222.136a5.797 5.797 0 0 0 5.952-.066l.245-.15c.023.155.028.3.038.45z" fill="#B3B7D0" fill-rule="nonzero"/>
        <path d="M29.28 12.82c-1.004-.964-1.886.272-1.886.272l-.117.656c.157-1.335.237-2.679.24-4.023 0 0 .472-7.579-7.508-7.733-7.979-.155-7.31 7.733-7.31 7.733s.024 1.405.19 3.278a1.184 1.184 0 0 0-1.82-.169c-1.142 1.097.975 5.153 2.395 4.446 0 .056 0 .112.033.168.387 1.925 1.584 3.321 3.3 4.384l.223.136a5.797 5.797 0 0 0 5.951-.065l.245-.15.066-.042c1.703-1.054 2.905-2.342 3.334-4.216 0-.103.043-.215.066-.323 1.42 1.176 3.797-3.204 2.599-4.351z" fill="#DEDFEA" fill-rule="nonzero"/>
        <path d="M11.035 14.118s.283-2.14 2.17 1.583M29.045 14.118s-.26-2.169-1.886 1.593" stroke="#121E6C" stroke-width=".5" stroke-linecap="round" stroke-linejoin="round"/>
        <path d="M29.111 9.266 26.41 3.083 19.576.877c-8.843.562-7.22 6.923-7.216 6.927-.617 3.054.321 4.876.321 4.876a18.632 18.632 0 0 0 1.745-4.215c3.636.655 6.96-1.087 9.182-2.764a7.29 7.29 0 0 0 2.098 2.525 17.562 17.562 0 0 0 2.014 4.08s.471-.998.288-3.115c.365.055.734.08 1.103.075z" fill="#121E6C" fill-rule="nonzero"/>
        <path d="M17.529 18.034c.452-.123.898-.27 1.334-.44.224-.134.49-.178.746-.122.051 0 .202.089.273.112a.422.422 0 0 0 .32 0c.062-.028.128-.075.222-.117.286-.082.592-.045.85.103.33.164 1.192.468 1.192.468l-4.937-.004z" fill="#EF434E" fill-rule="nonzero"/>
        <path d="M17.529 18.034a2.75 2.75 0 0 0 2.509 1.695 2.602 2.602 0 0 0 2.433-1.719l-4.942.024z" fill="#EF434E" fill-rule="nonzero"/>
        <path d="M17.727 18.076a3.253 3.253 0 0 0 2.31.806 3.234 3.234 0 0 0 2.25-.806 4.482 4.482 0 0 1-1.67 0c-.16-.033-.202.108-.608.108-.405 0-.471-.131-.56-.099a4.444 4.444 0 0 1-1.722 0v-.01z" fill="#FFF" fill-rule="nonzero"/>
        <path d="M34.534 30.37c-1.367-1.27-5.187-1.827-8.285-2.258h-.029c-.104.904-2.787 1.626-6.083 1.626-3.297 0-5.956-.698-6.074-1.635a.042.042 0 0 1 0-.023c-2.967.468-6.683 1.063-8.168 2.276C4.409 31.569 1.995 35.926 0 40h10.054l.156-2.595.302 2.595h19.335l.184-2.595.226 2.595H40c-1.863-4.028-4.046-8.31-5.466-9.63z" fill="url(#07jgihbvda)" fill-rule="nonzero" transform="translate(0 .034)"/>
        <path d="M23.645 10.108a3 3 0 0 0-2.928 2.342 1.49 1.49 0 0 0-1.415-.028 2.998 2.998 0 0 0-3.324-2.3 2.985 2.985 0 0 0-2.598 3.087 2.99 2.99 0 0 0 2.866 2.842 2.994 2.994 0 0 0 3.103-2.585.944.944 0 0 1 .59-.351c.291.017.561.159.74.389a2.99 2.99 0 0 0 3.243 2.549 2.981 2.981 0 0 0 2.714-3.1 2.986 2.986 0 0 0-2.99-2.836v-.01zm-7.272 5.503a2.533 2.533 0 0 1-2.546-2.52 2.533 2.533 0 0 1 2.537-2.529 2.533 2.533 0 0 1 2.547 2.52 2.538 2.538 0 0 1-2.538 2.53zm7.268 0a2.533 2.533 0 0 1-2.537-2.526 2.533 2.533 0 0 1 2.54-2.523 2.533 2.533 0 0 1 2.543 2.52 2.516 2.516 0 0 1-.744 1.79 2.55 2.55 0 0 1-1.802.74z" fill="url(#t4dsrrfv2b)" fill-rule="nonzero" transform="translate(0 .034)"/>
        <path d="M26.046 12.296a2.522 2.522 0 0 0-2.877-1.658 2.524 2.524 0 0 0-2.051 2.478c-.004.168.008.335.037.5.155.75.644 1.39 1.33 1.739.357.182.754.277 1.156.276.058.005.116.005.174 0a2.53 2.53 0 0 0 1.18-.384c.602-.383 1.014-1 1.136-1.7.024-.14.037-.28.037-.422a2.378 2.378 0 0 0-.122-.829z"/>
        <path d="M22.075 13.252c.473.282 1.02.42 1.57.393a2.845 2.845 0 0 0 1.566-.398c-.371.476-.962.73-1.566.674-1.193 0-1.57-.67-1.57-.67zM14.803 13.252c.473.282 1.02.42 1.57.393.544.018 1.08-.12 1.547-.398-.371.476-.962.73-1.565.674-1.198 0-1.57-.67-1.57-.67h.018z" fill="#121E6C" fill-rule="nonzero"/>
        <g style="mix-blend-mode:soft-light" fill="#FFF" fill-rule="nonzero">
            <path d="m25.282 11.181-2.797 4.183a2.522 2.522 0 0 1-1.33-1.747l2-2.984a2.557 2.557 0 0 1 2.127.548zM26.187 13.116c0 .141-.013.282-.038.421l-1.155 1.705a2.53 2.53 0 0 1-1.193.384l2.23-3.335c.1.264.154.543.156.825z"/>
        </g>
        <g style="mix-blend-mode:soft-light" fill="#FFF" fill-rule="nonzero">
            <path d="m18.005 11.181-2.796 4.183a2.522 2.522 0 0 1-1.33-1.747l2-2.984a2.557 2.557 0 0 1 2.127.548zM18.91 13.116c0 .141-.013.282-.037.421l-1.137 1.7a2.53 2.53 0 0 1-1.193.385l2.23-3.335c.095.266.142.547.138.829z"/>
        </g>
    </g>
</svg>
