<svg width="68" height="78" viewBox="0 0 68 78" xmlns="http://www.w3.org/2000/svg">
    <defs>
        <linearGradient x1="4.62%" y1="51.572%" x2="141.873%" y2="47.07%" id="bhl938ywga">
            <stop stop-color="#121E6C" offset="11%"/>
            <stop stop-color="#5D2A62" offset="34%"/>
            <stop stop-color="#9B3459" offset="56%"/>
            <stop stop-color="#C83C53" offset="74%"/>
            <stop stop-color="#E4404F" offset="88%"/>
            <stop stop-color="#EE424E" offset="96%"/>
        </linearGradient>
        <linearGradient x1="1.492%" y1="75.472%" x2="94.159%" y2="23.366%" id="4f61sqo2gb">
            <stop stop-color="#121E6C" offset="11%"/>
            <stop stop-color="#5D2A62" offset="34%"/>
            <stop stop-color="#9B3459" offset="56%"/>
            <stop stop-color="#C83C53" offset="74%"/>
            <stop stop-color="#E4404F" offset="88%"/>
            <stop stop-color="#EE424E" offset="96%"/>
        </linearGradient>
        <linearGradient x1="5.862%" y1="68.822%" x2="98.447%" y2="31.647%" id="g9u4drbf6c">
            <stop stop-color="#121E6C" offset="11%"/>
            <stop stop-color="#5D2A62" offset="34%"/>
            <stop stop-color="#9B3459" offset="56%"/>
            <stop stop-color="#C83C53" offset="74%"/>
            <stop stop-color="#E4404F" offset="88%"/>
            <stop stop-color="#EE424E" offset="96%"/>
        </linearGradient>
        <linearGradient x1="-56.226%" y1="92.814%" x2="161.509%" y2="6.667%" id="ht9w6mgoad">
            <stop stop-color="#121E6C" offset="11%"/>
            <stop stop-color="#5D2A62" offset="34%"/>
            <stop stop-color="#9B3459" offset="56%"/>
            <stop stop-color="#C83C53" offset="74%"/>
            <stop stop-color="#E4404F" offset="88%"/>
            <stop stop-color="#EE424E" offset="96%"/>
        </linearGradient>
    </defs>
    <g fill="none" fill-rule="evenodd">
        <path d="M19 58.547a2.458 2.458 0 0 1-.136-1.013c.025-.363.1-.72.22-1.063l-.476-.378-.043-.036c-1.21-.963-2.058-1.598-2.058-1.598-1.026-.906-2.72-1.648-4.188-.621a1.561 1.561 0 0 0-.413.457c.078.057 2.35 1.912 4.658 3.731a6.468 6.468 0 0 0 2.848 1.227 2.141 2.141 0 0 1-.413-.706zm16.764 6.257c-.306-.128-.64-.25-.997-.364-1.033-.342-2.849-.642-4.045-1.02 0 0-6.225-1.784-8.482-2.454a6.633 6.633 0 0 1-2.372-1.15l-1.738-.47a5.41 5.41 0 0 1-2.036-1.106 63.893 63.893 0 0 0-6.467-4.901c-2.243-1.02-3.319.585-3.319.585.121.085 5.064 3.867 7.578 6.121a14.238 14.238 0 0 0 3.682 2.14c.712.265 3.952 1.263 5.32 1.627.2.057.327.15.285.328a1.294 1.294 0 0 1-.492.107c-.997-.25-3.753-1.141-5.355-1.655a12.179 12.179 0 0 1-3.625-2.005c-.712-.57-7.585-6.192-7.685-6.27-1.054-.807-2.735-1.578-3.903-.971-1.167.606-1.73 2.226-.235 3.567.214-.076.437-.119.663-.128a4.78 4.78 0 0 1 2.62.899s6.019 4.145 8.775 6.121c.926.67 5.42 2.526 7.791 3.489a7.615 7.615 0 0 0 5.32.321l2.963-1.034a58.707 58.707 0 0 1 5.84-1.606c.042-.05.042-.107-.086-.171z" fill="#DEDFEA" fill-rule="nonzero"/>
        <path d="M44.132 39.326v2.283a3.23 3.23 0 0 0-2.329-1.027H12.084c-.327 0-.652-.053-.961-.157a2.43 2.43 0 0 1-1.539-1.427v-.05a.529.529 0 0 0 0-.1.207.207 0 0 1 0-.064v-.257a.543.543 0 0 0 0-.107v-.064c.011-.687.35-1.326.912-1.72a3.03 3.03 0 0 1 1.588-.563h28.765a3.244 3.244 0 0 1 2.32.94c.616.611.963 1.444.963 2.313z" fill="#FFF" fill-rule="nonzero"/>
        <path d="M40.849 36.586H12.084c-.94 0-2.1.6-2.1 1.748a1.952 1.952 0 0 0 2.136 1.748h29.605a2.845 2.845 0 0 1 1.866.5v-1.256a2.744 2.744 0 0 0-2.742-2.74z" fill="url(#bhl938ywga)" fill-rule="nonzero"/>
        <path d="M32.673 2.74h-9.65a5.703 5.703 0 0 1-4.7 4.88v33.575a5.703 5.703 0 0 1 4.7 4.88h9.65a5.703 5.703 0 0 1 4.85-4.901V7.641a5.703 5.703 0 0 1-4.85-4.901z" fill="#66B277" fill-rule="nonzero"/>
        <path d="M40.258 46.675V2.14C40.258.958 39.3 0 38.12 0H17.725c-1.18 0-2.137.958-2.137 2.14v44.535c0 1.182.957 2.14 2.137 2.14H38.12c1.18 0 2.137-.958 2.137-2.14zm-17.235-.6a5.703 5.703 0 0 0-4.7-4.88V7.62a5.703 5.703 0 0 0 4.7-4.88h9.65a5.703 5.703 0 0 0 4.85 4.901v33.533a5.703 5.703 0 0 0-4.85 4.902h-9.65z" fill="#8AD4A0" fill-rule="nonzero"/>
        <ellipse fill="#8AD4A0" fill-rule="nonzero" transform="rotate(-13.28 27.922 24.409)" cx="27.922" cy="24.409" rx="6.254" ry="6.264"/>
        <path d="M30.238 51.177v6.036a1.64 1.64 0 0 0 1.638 1.634h13.09v3.995a3.243 3.243 0 0 1-3.241 3.246H12.732a3.25 3.25 0 0 1-3.247-3.246v-24.45a.543.543 0 0 1 0 .107v.257a.207.207 0 0 0 0 .064V38.97a2.43 2.43 0 0 0 1.538 1.426c.31.104.634.157.961.157h29.784a3.23 3.23 0 0 1 3.197 3.247v5.707h-13.09a1.637 1.637 0 0 0-1.637 1.67z" fill="url(#4f61sqo2gb)" fill-rule="nonzero"/>
        <path d="M9.983 63.07a2.32 2.32 0 0 1-.356-.67" stroke="#FFF" stroke-width="1.076" stroke-linecap="round"/>
        <path d="M44.965 50.05v8.29h-13.09a1.126 1.126 0 0 1-1.125-1.127v-6.036c0-.623.504-1.127 1.126-1.127h13.09z" fill="url(#g9u4drbf6c)" fill-rule="nonzero"/>
        <path d="M31.876 50.05h13.09v8.29h-13.09a1.126 1.126 0 0 1-1.126-1.127v-6.036c0-.623.504-1.127 1.126-1.127z" fill="url(#g9u4drbf6c)" fill-rule="nonzero"/>
        <path d="M45.614 49.543H31.876a1.64 1.64 0 0 0-1.638 1.634v6.036a1.64 1.64 0 0 0 1.638 1.634h13.738c.393 0 .712-.32.712-.714v-7.84a.714.714 0 0 0-.712-.75zm.235 8.562a.242.242 0 0 1-.235.242H31.876a1.126 1.126 0 0 1-1.126-1.127v-6.043c0-.623.504-1.127 1.126-1.127h13.738c.13.003.235.11.235.242v7.813z" fill="#FFF" fill-rule="nonzero"/>
        <path d="M45.849 50.292v7.805a.242.242 0 0 1-.235.243H31.876a1.126 1.126 0 0 1-1.126-1.127v-6.036c0-.623.504-1.127 1.126-1.127h13.738c.13.003.235.11.235.242z" fill="url(#ht9w6mgoad)" fill-rule="nonzero"/>
        <path d="M35.43 52.211a1.982 1.982 0 0 0-1.973 1.98 1.982 1.982 0 0 0 1.963 1.987 1.985 1.985 0 1 0 .01-3.967zm0 2.769a.783.783 0 0 1-.534-1.353.782.782 0 0 1 1.324.596.784.784 0 0 1-.79.757z" fill="#FFF" fill-rule="nonzero"/>
        <path d="M.013 59.71a4.17 4.17 0 0 0 1.837 3.788s4.494 3.932 7.122 6.2c1.538 1.32 9.208 4.331 11.623 5.508a8.073 8.073 0 0 0 2.186.714c2.735.47 9.565 1.862 10.925 1.976 3.349.283 6.722-.014 9.97-.877a26.116 26.116 0 0 0 9.002-4.196 7.855 7.855 0 0 0 3.127-7.562 8.234 8.234 0 0 0-4.18-6.364c-3.184-1.82-8.704-1.905-12.756-.914-1.574.386-3.475-.043-5.626-.5L26.648 56.1l-.22-.057-3.284-.671h-.05a4.387 4.387 0 0 0-2.4.093 2.605 2.605 0 0 0-.42.242l-.057.05A2.277 2.277 0 0 0 19 58.554c.335 1.648 2.244 2.14 3.24 2.419 2.258.67 11.481 3.196 12.528 3.474 2.023.535 1.845.806 1.845.806-.162.061-.329.106-.499.136-3.134.578-9.116 2.797-9.123 2.804a5.958 5.958 0 0 1-3.974.107c-.427-.143-8.183-3.132-9.116-3.796-.342-.25-8.774-6.128-8.774-6.128-3.483-2.012-4.978.342-5.113 1.334" fill="#DEDFEA" fill-rule="nonzero"/>
        <g stroke="#121E6C" stroke-linecap="round" stroke-width=".7">
            <path d="m54.05 36.533 11.524-2.124M52.835 31.734l3.178-3.446M53.32 41.435l3.902 4.155M48.545 29.738l1.016-6.42"/>
        </g>
    </g>
</svg>
