<svg width="24" height="40" viewBox="0 0 24 40" xmlns="http://www.w3.org/2000/svg">
    <defs>
        <linearGradient x1="6.304%" y1="55.084%" x2="94.215%" y2="45.179%" id="90kxof0eta">
            <stop stop-color="#121E6C" offset="0%"/>
            <stop stop-color="#EE424E" offset="100%"/>
        </linearGradient>
        <linearGradient x1="46.491%" y1="47.514%" x2="59.332%" y2="57.615%" id="qjbzrxubcb">
            <stop stop-color="#FFF" stop-opacity="0" offset="10%"/>
            <stop stop-color="#D8DFE7" stop-opacity=".16" offset="32%"/>
            <stop stop-color="#ACBBCC" stop-opacity=".34" offset="60%"/>
            <stop stop-color="#92A5BC" stop-opacity=".45" offset="84%"/>
            <stop stop-color="#889DB6" stop-opacity=".49" offset="100%"/>
        </linearGradient>
        <linearGradient x1="10.798%" y1="50%" x2="89.928%" y2="50%" id="kyuxvr7rnc">
            <stop stop-color="#121E6C" offset="0%"/>
            <stop stop-color="#EE424E" offset="100%"/>
        </linearGradient>
        <linearGradient x1="-1.059%" y1="61.611%" x2="104.361%" y2="36.941%" id="2syat7998d">
            <stop stop-color="#121E6C" offset="0%"/>
            <stop stop-color="#EE424E" offset="100%"/>
        </linearGradient>
    </defs>
    <g fill="none" fill-rule="evenodd">
        <path fill="url(#90kxof0eta)" fill-rule="nonzero" d="M1.339 15.31H22.66v7.199H1.339z"/>
        <circle fill="#88A6D3" fill-rule="nonzero" cx="8.224" cy="16.962" r="1"/>
        <circle fill="#88A6D3" fill-rule="nonzero" cx="15.752" cy="16.962" r="1"/>
        <path fill="#DEDFEA" fill-rule="nonzero" d="m22.079 16.32-.004-.006.586-1.004H1.339l.586 1.004v3.364h-.586v.489H22.66v-.489h-.581z"/>
        <path fill="#B3B7D0" fill-rule="nonzero" d="M1.925 16.314 0 18.53h1.34v1.148h.585zM24 18.53l-1.921-2.21v3.358h.582V18.53zM23.612 4.724 12.605.031a.366.366 0 0 0-.48.185L4.808 17.098c-.039.09-.027.266.065.305l11.283 4.811c.085.037.215-.074.25-.157L23.763 5.09a.276.276 0 0 0-.15-.365z"/>
        <path d="M23.548 4.698 12.614.035a.221.221 0 0 0-.29.115l-1.727 3.98a.058.058 0 0 0 .031.078.058.058 0 0 1 .032.076l-5.558 12.82a.163.163 0 0 0 .088.214l10.815 4.608a.165.165 0 0 0 .216-.083l7.38-17.02a.095.095 0 0 0-.053-.125z" fill="#DEDFEA" fill-rule="nonzero"/>
        <path d="M23.548 4.698 12.614.035a.221.221 0 0 0-.29.115l-1.727 3.98a.058.058 0 0 0 .031.078.058.058 0 0 1 .032.076l-5.558 12.82a.163.163 0 0 0 .088.214l10.815 4.608a.165.165 0 0 0 .216-.083l7.38-17.02a.095.095 0 0 0-.053-.125z" opacity=".68" fill="#FFF" fill-rule="nonzero"/>
        <path d="M13.106.252 12.61.04a.133.133 0 0 0-.172.067l-1.692 3.905h.087a.55.55 0 0 1 .131.049l.349.148a.07.07 0 0 0 .09-.036L13.106.252z" fill="url(#qjbzrxubcb)" fill-rule="nonzero"/>
        <path fill="#B3B7D0" fill-rule="nonzero" d="m12.139 1.312.08-.184.349.148-.08.184zM11.905 1.85l.08-.184.349.149-.08.184zM11.671 2.388l.08-.184.349.149-.08.184zM11.436 2.93l.08-.184.35.15-.08.183z"/>
        <path d="M19.155 13.242 9.418 9.095a.257.257 0 0 1-.138-.339l1.742-4.02a.26.26 0 0 1 .348-.132l9.738 4.148a.257.257 0 0 1 .138.337l-1.742 4.018a.258.258 0 0 1-.349.135z" fill="#FFF" fill-rule="nonzero"/>
        <path d="m21.172 8.785-9.88-4.214a.183.183 0 0 0-.24.093l-.025.059a.18.18 0 0 1 .239-.092l9.88 4.213a.18.18 0 0 1 .098.23l.025-.059a.18.18 0 0 0-.097-.23zM11.488 5.474l.055-.128 8.84 3.769-.056.128z" fill="#B3B7D0" fill-rule="nonzero"/>
        <path fill="#DEDFEA" fill-rule="nonzero" d="m10.356 8.083 1.13-2.61 8.84 3.769-1.13 2.609z"/>
        <path d="m8.736 11.228.285-.657a.277.277 0 0 1 .363-.141l1.466.63c.14.059.206.22.148.358l-.286.658a.277.277 0 0 1-.364.136l-1.466-.625a.274.274 0 0 1-.146-.359zM8.015 12.88l.284-.657a.279.279 0 0 1 .365-.141l1.465.626a.273.273 0 0 1 .147.358l-.284.658a.279.279 0 0 1-.364.14l-1.466-.625a.274.274 0 0 1-.147-.359zM7.288 14.57l.284-.657a.274.274 0 0 1 .364-.14l1.466.628c.14.059.206.219.147.358l-.286.658a.276.276 0 0 1-.363.136l-1.466-.624a.274.274 0 0 1-.146-.359zM6.555 16.26l.285-.659a.276.276 0 0 1 .362-.14l1.464.624a.275.275 0 0 1 .148.36l-.285.656a.274.274 0 0 1-.363.141l-1.464-.624a.273.273 0 0 1-.147-.359zM11.15 12.26l.287-.657a.274.274 0 0 1 .363-.14l1.466.625c.14.059.206.219.148.358l-.286.658a.277.277 0 0 1-.364.14l-1.466-.625a.273.273 0 0 1-.147-.358zM10.44 13.913l.285-.658a.277.277 0 0 1 .363-.14l1.466.625a.274.274 0 0 1 .148.358l-.285.658a.279.279 0 0 1-.365.14l-1.464-.625a.273.273 0 0 1-.148-.358zM9.707 15.601l.282-.657a.274.274 0 0 1 .364-.14l1.466.625c.14.058.206.219.147.358l-.285.658a.276.276 0 0 1-.36.145l-1.466-.624a.278.278 0 0 1-.148-.365zM8.975 17.292l.286-.658a.274.274 0 0 1 .364-.14l1.464.624a.274.274 0 0 1 .148.358l-.285.658a.274.274 0 0 1-.363.14l-1.466-.624a.273.273 0 0 1-.148-.358zM13.666 13.33l.285-.657a.274.274 0 0 1 .364-.14l1.465.624a.275.275 0 0 1 .147.36l-.284.654a.274.274 0 0 1-.364.14l-1.466-.625a.273.273 0 0 1-.147-.355zM12.95 14.983l.285-.658a.277.277 0 0 1 .363-.14l1.466.624c.14.06.206.22.148.36l-.286.657a.277.277 0 0 1-.364.14l-1.464-.625a.273.273 0 0 1-.148-.358zM12.217 16.672l.286-.658a.277.277 0 0 1 .364-.14l1.464.625a.273.273 0 0 1 .148.358l-.285.655a.277.277 0 0 1-.363.14l-1.466-.625a.273.273 0 0 1-.148-.355zM11.485 18.362l.285-.658a.277.277 0 0 1 .364-.14l1.465.624c.14.059.206.219.148.358l-.286.658a.273.273 0 0 1-.363.14l-1.465-.624a.274.274 0 0 1-.148-.358zM16.1 14.369l.284-.658a.275.275 0 0 1 .364-.14l1.465.624a.274.274 0 0 1 .148.358l-.285.654a.277.277 0 0 1-.363.141l-1.466-.624a.273.273 0 0 1-.148-.355zM15.384 16.02l.284-.657a.274.274 0 0 1 .364-.14l1.466.624c.14.059.206.219.147.358l-.286.658a.274.274 0 0 1-.363.14l-1.466-.624a.274.274 0 0 1-.146-.358zM14.65 17.71l.286-.658a.274.274 0 0 1 .364-.14l1.465.624a.275.275 0 0 1 .147.36l-.284.652a.279.279 0 0 1-.364.14l-1.466-.625a.272.272 0 0 1-.147-.353zM13.919 19.399l.284-.658a.279.279 0 0 1 .364-.14l1.462.625a.275.275 0 0 1 .151.36l-.285.657a.274.274 0 0 1-.364.14l-1.465-.625a.273.273 0 0 1-.147-.36z" fill="#B3B7D0" fill-rule="nonzero"/>
        <path d="m16.086 4.343 1.204.512a.66.66 0 0 1-.838.29.65.65 0 0 1-.366-.802zm-.572-1.027-.523 1.206c.325.1.674-.06.808-.37a.657.657 0 0 0-.285-.836zm1.46.62a.666.666 0 0 0-.839.293l1.203.512a.654.654 0 0 0-.363-.805zm-2.258-.441-.335.768.487.212.505-1.166.232-.54-.49-.209-.4.935zm4.775.928-.3.692-.44 1.016.49.206.611-1.41.127-.295-.488-.209zm-1.138.818a.655.655 0 0 0 .286.835l.399-.921.128-.284a.665.665 0 0 0-.813.37zM17.3 5.51l.185.08.305.13.106-.246.633-1.46-.49-.212L17.3 5.51z" fill="url(#kyuxvr7rnc)" fill-rule="nonzero"/>
        <path d="m10.354 12.119-1.41-.598a.216.216 0 0 1-.116-.283l.261-.602a.218.218 0 0 1 .287-.115l1.408.6a.216.216 0 0 1 .116.284l-.26.601a.22.22 0 0 1-.286.113zM9.64 13.77l-1.407-.6a.216.216 0 0 1-.116-.283l.26-.601a.218.218 0 0 1 .287-.115l1.408.6a.216.216 0 0 1 .116.283l-.26.602a.218.218 0 0 1-.287.115zM8.906 15.46l-1.408-.598a.216.216 0 0 1-.116-.282l.261-.602a.216.216 0 0 1 .287-.115l1.408.6c.11.047.163.174.116.284l-.26.601a.218.218 0 0 1-.288.112zM8.174 17.15l-1.408-.6a.216.216 0 0 1-.116-.284l.26-.598a.218.218 0 0 1 .292-.115l1.407.6c.11.047.162.173.117.283l-.262.6a.216.216 0 0 1-.29.114zM12.777 13.151l-1.408-.6a.216.216 0 0 1-.116-.283l.261-.602a.218.218 0 0 1 .287-.115l1.408.6c.111.047.163.173.116.284l-.261.6a.218.218 0 0 1-.287.116zM12.06 14.803l-1.409-.6a.216.216 0 0 1-.116-.283l.26-.602a.218.218 0 0 1 .287-.115l1.408.6a.216.216 0 0 1 .116.284l-.26.6a.218.218 0 0 1-.287.116zM11.326 16.492l-1.408-.6a.216.216 0 0 1-.116-.282l.262-.602a.216.216 0 0 1 .287-.115l1.407.6c.11.047.163.174.117.284l-.26.604a.218.218 0 0 1-.289.111zM10.595 18.182l-1.408-.6a.216.216 0 0 1-.116-.284l.26-.6a.216.216 0 0 1 .287-.116l1.407.6a.215.215 0 0 1 .117.282l-.26.602a.217.217 0 0 1-.287.116zM15.285 14.221l-1.408-.6a.216.216 0 0 1-.116-.283l.26-.602a.219.219 0 0 1 .288-.115l1.407.6c.11.047.162.173.116.283l-.261.602a.219.219 0 0 1-.286.115zM14.568 15.873l-1.406-.6a.217.217 0 0 1-.117-.283l.262-.602a.218.218 0 0 1 .287-.115l1.407.6a.215.215 0 0 1 .117.283l-.26.602a.219.219 0 0 1-.29.115zM13.836 17.562l-1.407-.6a.215.215 0 0 1-.117-.282l.26-.602a.219.219 0 0 1 .289-.115l1.406.6c.11.047.162.174.117.284l-.262.601a.219.219 0 0 1-.286.114zM13.105 19.252l-1.408-.6a.217.217 0 0 1-.116-.283l.261-.602a.215.215 0 0 1 .287-.115l1.408.6a.215.215 0 0 1 .116.283l-.26.6a.217.217 0 0 1-.288.117zM17.718 15.258l-1.407-.6a.215.215 0 0 1-.117-.282l.26-.602a.218.218 0 0 1 .287-.115l1.408.6c.111.047.163.174.116.284l-.26.605a.215.215 0 0 1-.287.11zM17.002 16.91l-1.408-.6a.216.216 0 0 1-.116-.282l.261-.602a.216.216 0 0 1 .287-.115l1.408.602a.215.215 0 0 1 .116.282l-.261.601a.215.215 0 0 1-.287.114zM16.27 18.6l-1.402-.6a.216.216 0 0 1-.116-.283l.26-.602a.218.218 0 0 1 .287-.115l1.408.6a.215.215 0 0 1 .116.283l-.26.602a.218.218 0 0 1-.293.115zM15.537 20.29l-1.407-.601a.216.216 0 0 1-.116-.282l.261-.602a.216.216 0 0 1 .287-.115l1.408.6c.111.047.163.174.116.284l-.26.601a.219.219 0 0 1-.29.114z" fill="#DEDFEA" fill-rule="nonzero"/>
        <path fill="#FFF" fill-rule="nonzero" opacity=".68" d="m16.741 13.663 1.408.6"/>
        <path d="M0 37.94V18.53h24v19.416C24 39.08 23.08 40 21.946 40l-19.892-.004A2.056 2.056 0 0 1 0 37.94z" fill="url(#2syat7998d)" fill-rule="nonzero"/>
        <path d="M8.562 20.711h7.337c.567 0 1.027.46 1.027 1.028v.395c0 .567-.46 1.027-1.027 1.027H8.562c-.567 0-1.027-.46-1.027-1.027v-.395c0-.568.46-1.028 1.027-1.028z" fill="#DEDFEA"/>
    </g>
</svg>
